<svg width="44" height="44" viewBox="0 0 44 44" fill="none" xmlns="http://www.w3.org/2000/svg">
<circle cx="22" cy="22" r="22" fill="#634092" fill-opacity="0.1"/>
<g clip-path="url(#clip0_694_823)">
<path d="M17.3617 15.5833C17.3615 16.0695 17.1681 16.5357 16.8241 16.8794C16.4801 17.223 16.0137 17.4159 15.5275 17.4157C15.0413 17.4154 14.575 17.2221 14.2314 16.8781C13.8877 16.5341 13.6948 16.0677 13.6951 15.5814C13.6953 15.0952 13.8887 14.629 14.2327 14.2853C14.5767 13.9417 15.0431 13.7488 15.5293 13.749C16.0155 13.7493 16.4818 13.9427 16.8254 14.2866C17.1691 14.6306 17.362 15.097 17.3617 15.5833ZM17.4167 18.7733H13.7501V30.2499H17.4167V18.7733ZM23.2101 18.7733H19.5617V30.2499H23.1734V24.2274C23.1734 20.8724 27.5459 20.5608 27.5459 24.2274V30.2499H31.1667V22.9808C31.1667 17.3249 24.6951 17.5358 23.1734 20.3133L23.2101 18.7733Z" fill="#634092"/>
</g>
<defs>
<clipPath id="clip0_694_823">
<rect width="22" height="22" fill="white" transform="translate(11 11)"/>
</clipPath>
</defs>
</svg>
