<svg width="44" height="44" viewBox="0 0 44 44" fill="none" xmlns="http://www.w3.org/2000/svg">
<circle cx="22" cy="22" r="22" fill="#634092" fill-opacity="0.1"/>
<g clip-path="url(#clip0_694_818)">
<path d="M31.1666 14.6756C30.2499 15.1248 29.3516 15.3072 28.4166 15.5831C27.389 14.4235 25.8655 14.3594 24.4016 14.9075C22.9377 15.4557 21.9788 16.7959 21.9999 18.3331V19.2498C19.0253 19.3259 16.3762 17.971 14.6666 15.5831C14.6666 15.5831 10.8331 22.3967 18.3333 25.6664C16.6173 26.8095 14.9058 27.5804 12.8333 27.4998C15.8656 29.1525 19.1702 29.7209 22.0311 28.8904C25.3128 27.937 28.0096 25.4776 29.0445 21.7935C29.3532 20.673 29.5065 19.5155 29.5001 18.3533C29.4983 18.125 30.8843 15.8123 31.1666 14.6747V14.6756Z" stroke="#634092" stroke-width="2" stroke-linecap="round" stroke-linejoin="round"/>
</g>
<defs>
<clipPath id="clip0_694_818">
<rect width="22" height="22" fill="white" transform="translate(11 11)"/>
</clipPath>
</defs>
</svg>
