<svg width="874" height="532" viewBox="0 0 874 532" fill="none" xmlns="http://www.w3.org/2000/svg">
<path opacity="0.0416667" fill-rule="evenodd" clip-rule="evenodd" d="M1188.54 218.875C1203.02 258.224 1178.17 297.47 1167.62 338.048C1155.04 386.408 1164.09 447.927 1121.98 474.835C1078.37 502.709 1017.55 488.928 973.138 462.337C934.522 439.215 933.884 387.026 910.806 348.384C882.269 300.603 815.846 268.094 824.273 213.081C832.991 156.168 893.207 118.924 948.443 102.674C997.491 88.2443 1046.57 111.871 1092.59 134.144C1132.52 153.468 1173.22 177.247 1188.54 218.875Z" stroke="#634092" stroke-opacity="0.2"/>
<path opacity="0.0833333" fill-rule="evenodd" clip-rule="evenodd" d="M1174.92 229.153C1185.91 269.613 1157.74 306.544 1143.69 346.048C1126.95 393.128 1130.6 455.202 1086.31 478.338C1040.43 502.304 981.042 483.275 939.121 452.915C902.668 426.515 906.581 374.468 886.958 333.963C862.695 283.876 799.358 245.701 812.547 191.633C826.192 135.696 889.425 103.842 945.867 92.4679C995.986 82.368 1042.82 110.182 1086.72 136.381C1124.81 159.111 1163.29 186.348 1174.92 229.153Z" stroke="#634092" stroke-opacity="0.2"/>
<path opacity="0.125" fill-rule="evenodd" clip-rule="evenodd" d="M1160.76 237.929C1168.19 279.194 1136.9 313.528 1119.46 351.658C1098.68 397.099 1096.91 459.255 1050.77 478.443C1002.98 498.32 945.472 474.186 906.356 440.288C872.343 410.812 880.777 359.304 864.759 317.242C844.953 265.232 785.184 221.682 803.036 168.969C821.504 114.434 887.273 88.2124 944.492 81.8009C995.3 76.1076 1039.53 107.898 1080.98 137.824C1116.95 163.787 1152.91 194.273 1160.76 237.929Z" stroke="#634092" stroke-opacity="0.2"/>
<path opacity="0.166667" fill-rule="evenodd" clip-rule="evenodd" d="M1146.19 245.162C1149.99 286.917 1115.83 318.394 1095.14 354.859C1070.47 398.316 1063.29 460.081 1015.66 475.175C966.315 490.811 911.129 461.757 875.117 424.579C843.802 392.25 856.693 341.674 844.402 298.376C829.205 244.837 773.459 196.244 795.837 145.287C818.987 92.5693 886.791 72.1795 944.351 70.7792C995.463 69.5359 1036.75 105.06 1075.44 138.485C1109.01 167.484 1142.17 200.988 1146.19 245.162Z" stroke="#634092" stroke-opacity="0.2"/>
<path opacity="0.208333" fill-rule="evenodd" clip-rule="evenodd" d="M1131.34 250.823C1131.49 292.75 1094.72 321.13 1070.92 355.653C1042.57 396.795 1030.03 457.699 981.261 468.584C930.744 479.86 878.3 446.107 845.665 405.931C817.287 370.996 834.537 321.736 826.067 277.531C815.593 222.872 764.295 169.605 791.029 120.792C818.686 70.2932 888.009 55.8904 945.472 59.5122C996.497 62.7282 1034.54 101.716 1070.16 138.386C1101.07 170.199 1131.19 206.467 1131.34 250.823Z" stroke="#634092" stroke-opacity="0.2"/>
<path opacity="0.25" fill-rule="evenodd" clip-rule="evenodd" d="M1116.36 254.893C1112.85 296.674 1073.75 321.741 1047.04 354.058C1015.2 392.573 997.402 452.152 947.871 458.745C896.563 465.575 847.261 427.379 818.252 384.512C793.026 347.237 814.504 299.668 809.919 254.893C804.249 199.529 757.788 141.994 788.675 95.6968C820.628 47.8004 890.942 39.4942 947.871 48.1105C998.422 55.7614 1032.92 97.9162 1065.21 137.551C1093.23 171.938 1120.07 210.692 1116.36 254.893Z" stroke="#634092" stroke-opacity="0.2"/>
<path opacity="0.291667" fill-rule="evenodd" clip-rule="evenodd" d="M1101.38 257.367C1094.25 298.683 1053.1 320.246 1023.68 350.112C988.608 385.706 965.683 443.507 915.766 445.758C864.058 448.09 818.273 405.743 793.11 360.511C771.229 321.179 796.771 275.662 796.105 230.658C795.283 175.01 754.013 113.645 788.817 70.2163C824.823 25.287 895.594 23.1409 951.555 36.6859C1001.25 48.7136 1031.94 93.7144 1060.66 136.013C1085.57 172.711 1108.93 213.657 1101.38 257.367Z" stroke="#634092" stroke-opacity="0.2"/>
<path opacity="0.333333" fill-rule="evenodd" clip-rule="evenodd" d="M1086.54 258.25C1075.84 298.787 1032.97 316.682 1001.05 343.87C963.014 376.272 935.138 431.855 885.215 429.747C833.501 427.564 791.58 381.387 770.455 334.134C752.086 293.044 781.498 249.927 784.757 205.037C788.787 149.529 753.023 84.8003 791.48 44.5701C831.265 2.94992 901.953 6.97997 956.521 25.3508C1004.98 41.6636 1031.63 89.1681 1056.55 133.809C1078.17 172.539 1097.87 215.365 1086.54 258.25Z" stroke="#634092" stroke-opacity="0.2"/>
<path opacity="0.375" fill-rule="evenodd" clip-rule="evenodd" d="M1071.99 257.562C1057.79 297.011 1013.52 311.102 979.357 335.405C938.64 364.368 906.026 417.31 856.476 410.859C805.149 404.177 767.413 354.522 750.486 305.608C735.768 263.074 768.826 222.684 775.985 178.249C784.838 123.303 754.852 55.7037 796.668 18.9783C839.929 -19.016 909.998 -8.84037 962.756 14.2164C1009.6 34.6903 1032.01 84.3367 1052.95 130.98C1071.12 171.447 1087.01 215.827 1071.99 257.562Z" stroke="#634092" stroke-opacity="0.2"/>
<path opacity="0.416667" fill-rule="evenodd" clip-rule="evenodd" d="M1057.84 255.332C1040.26 293.393 994.937 303.573 958.783 324.806C915.696 350.11 878.592 400.008 829.793 389.263C779.244 378.132 745.979 325.378 733.38 275.175C722.425 231.519 758.877 194.165 769.882 150.522C783.49 96.5575 759.509 26.6018 804.368 -6.33931C850.776 -40.4185 919.69 -24.1748 970.239 3.39254C1015.12 27.8716 1033.12 79.2822 1049.91 127.573C1064.48 169.469 1076.45 215.066 1057.84 255.332Z" stroke="#634092" stroke-opacity="0.2"/>
<path opacity="0.458333" fill-rule="evenodd" clip-rule="evenodd" d="M1044.25 251.603C1023.41 287.987 977.378 294.178 939.511 312.178C894.383 333.631 853.071 380.105 805.394 365.148C756.008 349.654 727.467 294.202 719.292 243.091C712.183 198.647 751.752 164.612 766.519 122.095C784.778 69.5211 766.986 -2.25843 814.544 -31.1646C863.746 -61.0694 930.983 -38.8811 978.936 -7.01314C1021.52 21.2848 1034.97 74.0684 1047.48 123.639C1058.35 166.645 1066.29 213.112 1044.25 251.603Z" stroke="#634092" stroke-opacity="0.2"/>
<path opacity="0.5" fill-rule="evenodd" clip-rule="evenodd" d="M1031.33 246.428C1007.41 280.857 961.005 283.012 921.714 297.644C874.887 315.082 829.682 357.779 783.491 338.724C735.642 318.985 712.043 261.255 708.354 209.627C705.146 164.732 747.53 134.275 765.947 93.2066C788.719 42.4246 777.25 -30.6324 827.147 -55.2836C878.768 -80.7864 943.815 -52.8225 988.808 -16.8964C1028.76 15.0051 1037.56 68.7599 1045.71 119.233C1052.78 163.022 1056.65 210.004 1031.33 246.428Z" stroke="#634092" stroke-opacity="0.2"/>
<path opacity="0.541667" fill-rule="evenodd" clip-rule="evenodd" d="M1019.22 239.872C992.381 272.085 945.968 270.187 905.551 281.339C857.383 294.629 808.629 333.224 764.274 310.215C718.328 286.381 699.85 226.815 700.674 175.061C701.391 130.058 746.269 103.41 768.195 64.1034C795.306 15.4994 790.248 -58.2792 842.104 -78.4878C895.751 -99.3945 958.113 -65.8678 999.804 -26.1569C1036.82 9.10524 1040.9 63.4221 1044.62 114.413C1047.85 158.652 1047.61 205.793 1019.22 239.872Z" stroke="#634092" stroke-opacity="0.2"/>
<path opacity="0.583333" fill-rule="evenodd" clip-rule="evenodd" d="M1008.02 232.01C978.477 261.761 932.406 255.826 891.171 263.412C842.028 272.454 790.096 306.652 747.915 279.865C704.221 252.117 691.005 191.167 696.337 139.682C700.973 94.913 748.003 72.2783 773.271 35.0317C804.515 -11.0244 805.907 -84.9631 859.326 -100.575C914.591 -116.727 973.794 -77.8924 1011.87 -34.699C1045.67 3.65553 1045 58.1211 1044.26 109.243C1043.62 153.595 1039.27 200.535 1008.02 232.01Z" stroke="#634092" stroke-opacity="0.2"/>
<path opacity="0.625" fill-rule="evenodd" clip-rule="evenodd" d="M997.85 222.926C965.826 249.989 920.448 240.061 878.709 244.025C828.965 248.749 774.249 278.291 734.564 247.93C693.454 216.479 685.601 154.609 695.4 103.785C703.92 59.5902 752.744 41.1405 781.162 6.23793C816.301 -36.9198 824.132 -110.456 878.709 -121.353C935.171 -132.626 990.764 -88.7797 1024.93 -42.4326C1055.26 -1.27756 1049.85 52.9223 1044.66 103.785C1040.15 147.912 1031.73 194.295 997.85 222.926Z" stroke="#634092" stroke-opacity="0.2"/>
<path opacity="0.666667" fill-rule="evenodd" clip-rule="evenodd" d="M988.811 212.715C954.55 236.884 910.21 223.039 868.284 223.35C818.318 223.721 761.236 248.382 724.347 214.677C686.135 179.763 683.704 117.444 697.895 67.6673C710.235 24.3833 760.481 10.2592 791.833 -22.0338C830.6 -61.9647 844.81 -134.538 900.129 -140.637C957.359 -146.947 1008.92 -98.4218 1038.91 -49.2737C1065.54 -5.63138 1055.42 47.8902 1045.82 98.1069C1037.49 141.674 1025.06 187.146 988.811 212.715Z" stroke="#634092" stroke-opacity="0.2"/>
<path opacity="0.708333" fill-rule="evenodd" clip-rule="evenodd" d="M980.996 201.481C944.759 222.571 901.795 204.915 860.001 201.57C810.192 197.585 751.178 217.177 717.368 180.385C682.344 142.274 685.353 79.9799 703.829 31.6293C719.895 -10.4144 771.18 -20.1056 805.227 -49.5432C847.327 -85.9434 867.808 -157.003 923.448 -158.257C981.01 -159.554 1028.15 -106.72 1053.74 -55.1451C1076.47 -9.34771 1061.72 43.0882 1047.78 92.2769C1035.68 134.952 1019.33 179.168 980.996 201.481Z" stroke="#634092" stroke-opacity="0.2"/>
<path opacity="0.75" fill-rule="evenodd" clip-rule="evenodd" d="M974.491 189.332C936.554 207.185 895.292 185.85 853.948 178.876C804.677 170.565 744.18 184.939 713.704 145.34C682.136 104.321 690.563 42.5268 713.182 -4.02949C732.851 -44.513 784.786 -49.6975 821.269 -76.0557C866.381 -108.648 892.978 -177.652 948.515 -174.052C1005.97 -170.328 1048.32 -113.587 1069.32 -59.9769C1087.97 -12.373 1068.71 38.5783 1050.54 86.3646C1034.77 127.823 1014.63 170.445 974.491 189.332Z" stroke="#634092" stroke-opacity="0.2"/>
<path opacity="0.791667" fill-rule="evenodd" clip-rule="evenodd" d="M969.369 176.388C930.021 190.866 890.775 166.016 850.197 155.465C801.837 142.891 740.318 151.938 713.409 109.834C685.536 66.2201 699.317 5.39504 725.908 -39.0127C749.03 -77.6279 801.219 -78.2663 839.861 -101.344C887.642 -129.881 920.151 -196.304 975.164 -187.877C1032.08 -179.16 1069.32 -118.944 1085.57 -63.7074C1100 -14.6592 1076.37 34.4196 1054.1 80.4398C1034.78 120.366 1011 161.071 969.369 176.388Z" stroke="#634092" stroke-opacity="0.2"/>
<path opacity="0.833333" fill-rule="evenodd" clip-rule="evenodd" d="M965.696 162.771C925.235 173.765 888.304 145.589 848.8 131.542C801.72 114.801 739.646 118.451 716.51 74.1624C692.544 28.2849 711.574 -31.1076 741.934 -73.0289C768.334 -109.482 820.38 -105.569 860.886 -125.192C910.972 -149.455 949.147 -212.792 1003.22 -199.603C1059.15 -185.958 1091.01 -122.725 1102.38 -66.2829C1112.48 -16.1637 1084.67 30.6692 1058.47 74.573C1035.74 112.663 1008.5 151.14 965.696 162.771Z" stroke="#634092" stroke-opacity="0.2"/>
<path opacity="0.875" fill-rule="evenodd" clip-rule="evenodd" d="M963.524 148.611C922.259 156.036 887.924 124.749 849.795 107.312C804.353 86.5315 742.197 84.7581 723.009 38.6214C703.133 -9.17035 727.266 -66.6783 761.164 -105.794C790.641 -139.807 842.148 -131.373 884.21 -147.391C936.221 -167.197 979.77 -226.966 1032.48 -209.114C1087.02 -190.646 1113.24 -124.877 1119.65 -67.6586C1125.34 -16.8499 1093.55 27.3805 1063.63 68.8339C1037.67 104.798 1007.18 140.755 963.524 148.611Z" stroke="#634092" stroke-opacity="0.2"/>
<path opacity="0.916667" fill-rule="evenodd" clip-rule="evenodd" d="M962.894 134.04C921.139 137.84 889.662 103.68 853.197 82.9863C809.74 58.324 747.975 51.1402 732.881 3.50669C717.245 -45.8355 746.299 -101.021 783.478 -137.034C815.807 -168.349 866.383 -155.458 909.681 -167.748C963.22 -182.946 1011.81 -238.692 1062.77 -216.314C1115.49 -193.163 1135.88 -125.359 1137.28 -67.7992C1138.52 -16.6876 1103 24.6038 1069.57 63.2912C1040.57 96.8558 1007.07 130.019 962.894 134.04Z" stroke="#634092" stroke-opacity="0.2"/>
<path opacity="0.958333" fill-rule="evenodd" clip-rule="evenodd" d="M963.837 119.194C921.91 119.341 893.53 82.5675 859.007 58.7743C817.865 30.4183 756.961 17.8786 746.076 -30.8891C734.8 -81.4063 768.553 -133.85 808.729 -166.485C843.664 -194.863 892.924 -177.613 937.129 -186.083C991.788 -196.557 1045.06 -247.855 1093.87 -221.121C1144.37 -193.464 1158.77 -124.141 1155.15 -66.6783C1151.93 -15.6528 1112.94 22.3853 1076.27 58.0124C1044.46 88.9219 1008.19 119.039 963.837 119.194Z" stroke="#634092" stroke-opacity="0.2"/>
<path fill-rule="evenodd" clip-rule="evenodd" d="M966.371 104.212C924.59 100.704 899.523 61.597 867.206 34.8856C828.691 3.0517 769.112 -14.7484 762.519 -64.2793C755.689 -115.587 793.885 -164.889 836.752 -193.898C874.027 -219.124 921.596 -197.646 966.371 -202.231C1021.74 -207.901 1079.27 -254.362 1125.57 -223.476C1173.46 -191.522 1181.77 -121.208 1173.15 -64.2792C1165.5 -13.7282 1123.35 20.7671 1083.71 53.0627C1049.33 81.0817 1010.57 107.923 966.371 104.212Z" stroke="#634092" stroke-opacity="0.2"/>
<path d="M0 452.445C83.2928 452.445 150.815 384.923 150.815 301.63C150.815 218.337 83.2928 150.815 0 150.815" stroke="#F59C1C" stroke-opacity="0.2" stroke-width="45.4262"/>
<path d="M874 242.576C836.87 242.576 806.769 212.476 806.769 175.345C806.769 138.215 836.87 108.114 874 108.114" stroke="#634092" stroke-opacity="0.2" stroke-width="45.4262"/>
</svg>
