<svg width="1400" height="743" viewBox="0 0 1400 743" fill="none" xmlns="http://www.w3.org/2000/svg">
<g opacity="0.2" clip-path="url(#clip0_514_255)">
<path d="M1252.67 261.667H1207.33C1205.77 261.667 1204.5 262.935 1204.5 264.5V270.167C1204.5 271.731 1205.77 273 1207.33 273H1252.67C1254.23 273 1255.5 271.731 1255.5 270.167V264.5C1255.5 262.935 1254.23 261.667 1252.67 261.667Z" stroke="#634092" stroke-opacity="0.2" stroke-width="2" stroke-linecap="round" stroke-linejoin="round"/>
<path d="M1230 261.667V298.5" stroke="#634092" stroke-opacity="0.2" stroke-width="2" stroke-linecap="round" stroke-linejoin="round"/>
<path d="M1249.83 273V292.833C1249.83 294.336 1249.24 295.778 1248.17 296.84C1247.11 297.903 1245.67 298.5 1244.17 298.5H1215.83C1214.33 298.5 1212.89 297.903 1211.83 296.84C1210.76 295.778 1210.17 294.336 1210.17 292.833V273" stroke="#634092" stroke-opacity="0.2" stroke-width="2" stroke-linecap="round" stroke-linejoin="round"/>
<path d="M1217.25 261.667C1215.37 261.667 1213.57 260.92 1212.24 259.592C1210.91 258.264 1210.17 256.462 1210.17 254.583C1210.17 252.705 1210.91 250.903 1212.24 249.575C1213.57 248.246 1215.37 247.5 1217.25 247.5C1219.98 247.452 1222.66 248.779 1224.94 251.306C1227.21 253.833 1228.98 257.443 1230 261.667C1231.02 257.443 1232.79 253.833 1235.06 251.306C1237.34 248.779 1240.02 247.452 1242.75 247.5C1244.63 247.5 1246.43 248.246 1247.76 249.575C1249.09 250.903 1249.83 252.705 1249.83 254.583C1249.83 256.462 1249.09 258.264 1247.76 259.592C1246.43 260.92 1244.63 261.667 1242.75 261.667" stroke="#634092" stroke-opacity="0.2" stroke-width="2" stroke-linecap="round" stroke-linejoin="round"/>
</g>
<g opacity="0.2" clip-path="url(#clip1_514_255)">
<path d="M735.667 68.6667H690.333C688.769 68.6667 687.5 69.9352 687.5 71.5V77.1667C687.5 78.7315 688.769 80 690.333 80H735.667C737.231 80 738.5 78.7315 738.5 77.1667V71.5C738.5 69.9352 737.231 68.6667 735.667 68.6667Z" stroke="#634092" stroke-opacity="0.2" stroke-width="2" stroke-linecap="round" stroke-linejoin="round"/>
<path d="M713 68.6667V105.5" stroke="#634092" stroke-opacity="0.2" stroke-width="2" stroke-linecap="round" stroke-linejoin="round"/>
<path d="M732.833 80V99.8333C732.833 101.336 732.236 102.778 731.174 103.84C730.111 104.903 728.67 105.5 727.167 105.5H698.833C697.33 105.5 695.889 104.903 694.826 103.84C693.764 102.778 693.167 101.336 693.167 99.8333V80" stroke="#634092" stroke-opacity="0.2" stroke-width="2" stroke-linecap="round" stroke-linejoin="round"/>
<path d="M700.25 68.6667C698.371 68.6667 696.57 67.9204 695.241 66.592C693.913 65.2636 693.167 63.462 693.167 61.5833C693.167 59.7047 693.913 57.903 695.241 56.5747C696.57 55.2463 698.371 54.5 700.25 54.5C702.983 54.4524 705.662 55.7786 707.936 58.3056C710.21 60.8327 711.975 64.4433 713 68.6667C714.025 64.4433 715.79 60.8327 718.064 58.3056C720.338 55.7786 723.017 54.4524 725.75 54.5C727.629 54.5 729.43 55.2463 730.759 56.5747C732.087 57.903 732.833 59.7047 732.833 61.5833C732.833 63.462 732.087 65.2636 730.759 66.592C729.43 67.9204 727.629 68.6667 725.75 68.6667" stroke="#634092" stroke-opacity="0.2" stroke-width="2" stroke-linecap="round" stroke-linejoin="round"/>
</g>
<g opacity="0.2" clip-path="url(#clip2_514_255)">
<path d="M1071.39 102.527C1070.97 101.61 1071.37 100.527 1072.29 100.108L1073.74 99.4437C1076.16 98.3413 1078.26 99.2789 1079.78 100.478C1080.82 101.3 1081.81 102.428 1082.66 103.411L1116.84 87.7992C1119.04 86.793 1121.59 88.1721 1121.96 90.566L1124.99 110.346C1125.49 113.572 1123.78 116.736 1120.81 118.092L1103.95 125.795C1100.95 127.163 1097.42 126.357 1095.31 123.829L1089.6 116.987C1089.58 116.957 1089.55 116.926 1089.52 116.894L1080.8 106.843C1080.5 106.511 1080.23 106.187 1079.96 105.874C1079.1 104.878 1078.34 103.996 1077.52 103.342C1076.52 102.552 1075.89 102.475 1075.26 102.764L1073.8 103.429C1072.89 103.847 1071.81 103.444 1071.39 102.527ZM1092.31 114.529L1098.11 121.492C1099.17 122.756 1100.93 123.159 1102.43 122.475L1119.3 114.772C1120.78 114.094 1121.63 112.512 1121.39 110.899L1118.35 91.1193L1085.15 106.283L1092.31 114.529Z" fill="#634092" fill-opacity="0.2"/>
<path d="M1112.84 131.759C1114.1 134.509 1112.89 137.757 1110.13 139.013C1107.38 140.27 1104.14 139.058 1102.88 136.308C1101.62 133.558 1102.83 130.31 1105.59 129.053C1108.34 127.797 1111.58 129.008 1112.84 131.759ZM1109.52 133.275C1109.1 132.358 1108.02 131.955 1107.1 132.373C1106.18 132.792 1105.78 133.875 1106.2 134.792C1106.62 135.709 1107.7 136.112 1108.62 135.693C1109.53 135.275 1109.94 134.192 1109.52 133.275Z" fill="#634092" fill-opacity="0.2"/>
<path d="M1129.44 124.176C1130.7 126.926 1129.49 130.175 1126.73 131.431C1123.98 132.687 1120.74 131.476 1119.48 128.726C1118.22 125.975 1119.43 122.727 1122.19 121.471C1124.94 120.214 1128.18 121.426 1129.44 124.176ZM1126.12 125.693C1125.7 124.776 1124.62 124.372 1123.7 124.791C1122.79 125.209 1122.38 126.292 1122.8 127.209C1123.22 128.126 1124.3 128.53 1125.22 128.111C1126.13 127.692 1126.54 126.61 1126.12 125.693Z" fill="#634092" fill-opacity="0.2"/>
</g>
<g opacity="0.2" clip-path="url(#clip3_514_255)">
<path d="M251.554 337.271C251.901 336.324 252.95 335.839 253.896 336.186L255.398 336.738C257.889 337.653 258.724 339.799 258.959 341.719C259.12 343.034 259.033 344.535 258.941 345.829L294.214 358.781C296.488 359.616 297.332 362.393 295.909 364.352L284.149 380.543C282.231 383.184 278.792 384.231 275.727 383.105L258.324 376.715C255.234 375.58 253.285 372.518 253.567 369.239L254.327 360.364C254.327 360.322 254.329 360.28 254.331 360.238L255.205 346.959C255.23 346.517 255.26 346.09 255.289 345.679C255.382 344.369 255.464 343.209 255.336 342.162C255.181 340.897 254.793 340.404 254.14 340.164L252.638 339.613C251.692 339.265 251.207 338.217 251.554 337.271ZM257.978 360.52L257.203 369.551C257.063 371.191 258.037 372.721 259.582 373.289L276.985 379.679C278.517 380.242 280.237 379.719 281.196 378.398L292.956 362.207L258.696 349.627L257.978 360.52Z" fill="#634092" fill-opacity="0.2"/>
<path d="M260.447 387.209C259.404 390.047 256.258 391.503 253.42 390.461C250.581 389.419 249.125 386.273 250.168 383.434C251.21 380.596 254.356 379.14 257.194 380.182C260.033 381.224 261.489 384.37 260.447 387.209ZM257.02 385.95C257.368 385.004 256.882 383.956 255.936 383.608C254.99 383.261 253.941 383.746 253.594 384.692C253.246 385.639 253.732 386.687 254.678 387.035C255.624 387.382 256.673 386.897 257.02 385.95Z" fill="#634092" fill-opacity="0.2"/>
<path d="M277.578 393.499C276.536 396.338 273.39 397.794 270.551 396.751C267.713 395.709 266.257 392.563 267.299 389.725C268.341 386.886 271.487 385.43 274.326 386.473C277.164 387.515 278.62 390.661 277.578 393.499ZM274.152 392.241C274.499 391.295 274.014 390.246 273.068 389.899C272.122 389.551 271.073 390.037 270.725 390.983C270.378 391.929 270.864 392.978 271.81 393.325C272.756 393.673 273.804 393.187 274.152 392.241Z" fill="#634092" fill-opacity="0.2"/>
</g>
<circle cx="41" cy="708" r="250" stroke="#634092" stroke-opacity="0.2" stroke-width="50"/>
<circle cx="1535" cy="275" r="250" stroke="#F59C1C" stroke-opacity="0.2" stroke-width="50"/>
<g clip-path="url(#clip4_514_255)">
<path d="M356.756 131.944L359.854 136.345" stroke="#634092" stroke-opacity="0.1" stroke-width="2" stroke-linecap="round" stroke-linejoin="round"/>
<path d="M366.049 145.148L369.147 149.55" stroke="#634092" stroke-opacity="0.1" stroke-width="2" stroke-linecap="round" stroke-linejoin="round"/>
<path d="M375.342 158.353L378.44 162.754" stroke="#634092" stroke-opacity="0.1" stroke-width="2" stroke-linecap="round" stroke-linejoin="round"/>
<path d="M334.748 147.432L365.559 125.748C366.726 124.927 368.172 124.602 369.579 124.847C370.985 125.091 372.237 125.885 373.058 127.052L377.705 133.654C376.537 134.476 375.744 135.727 375.5 137.134C375.255 138.54 375.579 139.986 376.401 141.154C377.222 142.321 378.474 143.114 379.881 143.359C381.287 143.603 382.733 143.279 383.9 142.457L388.547 149.06C389.368 150.227 389.693 151.673 389.448 153.079C389.203 154.486 388.41 155.737 387.243 156.559L356.432 178.243C355.265 179.065 353.819 179.389 352.413 179.144C351.006 178.9 349.754 178.106 348.933 176.939L344.286 170.337C345.454 169.515 346.247 168.264 346.491 166.857C346.736 165.451 346.412 164.005 345.59 162.838C344.769 161.67 343.517 160.877 342.111 160.632C340.704 160.388 339.258 160.712 338.091 161.534L333.444 154.931C332.623 153.764 332.299 152.318 332.543 150.912C332.788 149.505 333.581 148.254 334.748 147.432" stroke="#634092" stroke-opacity="0.1" stroke-width="2" stroke-linecap="round" stroke-linejoin="round"/>
</g>
<g clip-path="url(#clip5_514_255)">
<path d="M1051.76 550.944L1054.85 555.345" stroke="#634092" stroke-opacity="0.1" stroke-width="2" stroke-linecap="round" stroke-linejoin="round"/>
<path d="M1061.05 564.148L1064.15 568.55" stroke="#634092" stroke-opacity="0.1" stroke-width="2" stroke-linecap="round" stroke-linejoin="round"/>
<path d="M1070.34 577.353L1073.44 581.754" stroke="#634092" stroke-opacity="0.1" stroke-width="2" stroke-linecap="round" stroke-linejoin="round"/>
<path d="M1029.75 566.432L1060.56 544.748C1061.73 543.927 1063.17 543.602 1064.58 543.847C1065.98 544.091 1067.24 544.885 1068.06 546.052L1072.7 552.654C1071.54 553.476 1070.74 554.727 1070.5 556.134C1070.26 557.54 1070.58 558.986 1071.4 560.154C1072.22 561.321 1073.47 562.114 1074.88 562.359C1076.29 562.603 1077.73 562.279 1078.9 561.457L1083.55 568.06C1084.37 569.227 1084.69 570.673 1084.45 572.079C1084.2 573.486 1083.41 574.737 1082.24 575.559L1051.43 597.243C1050.26 598.064 1048.82 598.389 1047.41 598.144C1046.01 597.9 1044.75 597.106 1043.93 595.939L1039.29 589.337C1040.45 588.515 1041.25 587.264 1041.49 585.857C1041.74 584.451 1041.41 583.005 1040.59 581.838C1039.77 580.67 1038.52 579.877 1037.11 579.632C1035.7 579.388 1034.26 579.712 1033.09 580.534L1028.44 573.931C1027.62 572.764 1027.3 571.318 1027.54 569.912C1027.79 568.505 1028.58 567.254 1029.75 566.432" stroke="#634092" stroke-opacity="0.1" stroke-width="2" stroke-linecap="round" stroke-linejoin="round"/>
</g>
<defs>
<clipPath id="clip0_514_255">
<rect width="68" height="68" fill="white" transform="translate(1196 239)"/>
</clipPath>
<clipPath id="clip1_514_255">
<rect width="68" height="68" fill="white" transform="translate(679 46)"/>
</clipPath>
<clipPath id="clip2_514_255">
<rect width="73" height="73" fill="white" transform="translate(1056.13 95.4646) rotate(-24.5497)"/>
</clipPath>
<clipPath id="clip3_514_255">
<rect width="73" height="73" fill="white" transform="translate(245.684 321.521) rotate(20.1629)"/>
</clipPath>
<clipPath id="clip4_514_255">
<rect width="64.5879" height="64.5879" fill="white" transform="translate(316 144.173) rotate(-35.1372)"/>
</clipPath>
<clipPath id="clip5_514_255">
<rect width="64.5879" height="64.5879" fill="white" transform="translate(1011 563.173) rotate(-35.1372)"/>
</clipPath>
</defs>
</svg>
