<svg width="106" height="106" viewBox="0 0 106 106" fill="none" xmlns="http://www.w3.org/2000/svg">
<path d="M35.3333 26.5C35.3333 31.3785 31.3785 35.3334 26.5 35.3334C21.6214 35.3334 17.6666 31.3785 17.6666 26.5C17.6666 21.6215 21.6214 17.6667 26.5 17.6667C31.3785 17.6667 35.3333 21.6215 35.3333 26.5Z" fill="#634092" fill-opacity="0.2"/>
<path d="M35.3333 53C35.3333 57.8787 31.3785 61.8334 26.5 61.8334C21.6214 61.8334 17.6666 57.8787 17.6666 53C17.6666 48.1214 21.6214 44.1667 26.5 44.1667C31.3785 44.1667 35.3333 48.1214 35.3333 53Z" fill="#634092" fill-opacity="0.2"/>
<path d="M26.5 88.3334C31.3785 88.3334 35.3333 84.3787 35.3333 79.5C35.3333 74.6214 31.3785 70.6667 26.5 70.6667C21.6214 70.6667 17.6666 74.6214 17.6666 79.5C17.6666 84.3787 21.6214 88.3334 26.5 88.3334Z" fill="#634092" fill-opacity="0.2"/>
<path d="M61.8333 26.5C61.8333 31.3785 57.8786 35.3334 53 35.3334C48.1213 35.3334 44.1666 31.3785 44.1666 26.5C44.1666 21.6215 48.1213 17.6667 53 17.6667C57.8786 17.6667 61.8333 21.6215 61.8333 26.5Z" fill="#634092" fill-opacity="0.2"/>
<path d="M53 61.8334C57.8786 61.8334 61.8333 57.8787 61.8333 53C61.8333 48.1214 57.8786 44.1667 53 44.1667C48.1213 44.1667 44.1666 48.1214 44.1666 53C44.1666 57.8787 48.1213 61.8334 53 61.8334Z" fill="#634092" fill-opacity="0.2"/>
<path d="M61.8333 79.5C61.8333 84.3787 57.8786 88.3334 53 88.3334C48.1213 88.3334 44.1666 84.3787 44.1666 79.5C44.1666 74.6214 48.1213 70.6667 53 70.6667C57.8786 70.6667 61.8333 74.6214 61.8333 79.5Z" fill="#634092" fill-opacity="0.2"/>
<path d="M79.5 35.3334C84.3786 35.3334 88.3333 31.3785 88.3333 26.5C88.3333 21.6215 84.3786 17.6667 79.5 17.6667C74.6213 17.6667 70.6666 21.6215 70.6666 26.5C70.6666 31.3785 74.6213 35.3334 79.5 35.3334Z" fill="#634092" fill-opacity="0.2"/>
<path d="M88.3333 53C88.3333 57.8787 84.3786 61.8334 79.5 61.8334C74.6213 61.8334 70.6666 57.8787 70.6666 53C70.6666 48.1214 74.6213 44.1667 79.5 44.1667C84.3786 44.1667 88.3333 48.1214 88.3333 53Z" fill="#634092" fill-opacity="0.2"/>
<path d="M79.5 88.3334C84.3786 88.3334 88.3333 84.3787 88.3333 79.5C88.3333 74.6214 84.3786 70.6667 79.5 70.6667C74.6213 70.6667 70.6666 74.6214 70.6666 79.5C70.6666 84.3787 74.6213 88.3334 79.5 88.3334Z" fill="#634092" fill-opacity="0.2"/>
</svg>
