<svg width="32" height="32" viewBox="0 0 32 32" fill="none" xmlns="http://www.w3.org/2000/svg">
<g clip-path="url(#clip0_563_953)">
<path d="M21.3333 5.33337H10.6666C7.72113 5.33337 5.33331 7.72119 5.33331 10.6667V21.3334C5.33331 24.2789 7.72113 26.6667 10.6666 26.6667H21.3333C24.2788 26.6667 26.6666 24.2789 26.6666 21.3334V10.6667C26.6666 7.72119 24.2788 5.33337 21.3333 5.33337Z" stroke="#D00951" stroke-width="2" stroke-linecap="round" stroke-linejoin="round"/>
<path d="M16 20C18.2091 20 20 18.2091 20 16C20 13.7909 18.2091 12 16 12C13.7909 12 12 13.7909 12 16C12 18.2091 13.7909 20 16 20Z" stroke="#D00951" stroke-width="2" stroke-linecap="round" stroke-linejoin="round"/>
<path d="M22 10V10.001" stroke="#D00951" stroke-width="2" stroke-linecap="round" stroke-linejoin="round"/>
</g>
<defs>
<clipPath id="clip0_563_953">
<rect width="32" height="32" fill="white"/>
</clipPath>
</defs>
</svg>
