<svg width="26" height="26" viewBox="0 0 26 26" fill="none" xmlns="http://www.w3.org/2000/svg">
<g clip-path="url(#clip0_563_942)">
<path d="M23.8334 4.34418C22.75 4.87501 21.6884 5.0906 20.5834 5.41668C19.3689 4.04626 17.5684 3.97043 15.8384 4.61826C14.1083 5.2661 12.9751 6.84993 13 8.66668V9.75001C9.4846 9.83993 6.35377 8.23876 4.33335 5.41668C4.33335 5.41668 -0.197146 13.4691 8.66669 17.3333C6.63869 18.6843 4.6161 19.5953 2.16669 19.5C5.75035 21.4533 9.65577 22.1249 13.0369 21.1434C16.9152 20.0168 20.1024 17.1102 21.3254 12.7563C21.6903 11.4321 21.8715 10.064 21.8639 8.69051C21.8617 8.42076 23.4997 5.68751 23.8334 4.3431V4.34418Z" stroke="#3896ED" stroke-width="2" stroke-linecap="round" stroke-linejoin="round"/>
</g>
<defs>
<clipPath id="clip0_563_942">
<rect width="26" height="26" fill="white"/>
</clipPath>
</defs>
</svg>
