<svg width="26" height="26" viewBox="0 0 26 26" fill="none" xmlns="http://www.w3.org/2000/svg">
<circle cx="13" cy="13" r="13" fill="#2E5C9E" fill-opacity="0.1"/>
<path d="M13.375 16.75C13.1679 16.75 13 16.9179 13 17.125V17.5C13 17.9142 12.6642 18.25 12.25 18.25H8.5C8.08577 18.25 7.75 17.9142 7.75 17.5V11.5C7.75 11.0858 8.08577 10.75 8.5 10.75H11.125C11.3321 10.75 11.5 10.5821 11.5 10.375C11.5 10.1679 11.3321 10 11.125 10H8.5C7.67158 10 7 10.6715 7 11.5V17.5C7 18.3284 7.67158 19 8.5 19H12.25C13.0784 19 13.75 18.3284 13.75 17.5V17.125C13.75 16.9179 13.5821 16.75 13.375 16.75ZM18.7803 9.03032L16.9697 7.21968C16.829 7.07901 16.6383 7 16.4394 7H13.75C12.9216 7 12.25 7.67153 12.25 8.5V14.5C12.25 15.3284 12.9216 16 13.75 16H17.5C18.3284 16 19 15.3284 19 14.5V9.56064C19 9.36175 18.921 9.17099 18.7803 9.03032ZM16.75 8.06064L17.9394 9.25H16.75V8.06064ZM18.25 14.5C18.25 14.9142 17.9142 15.25 17.5 15.25H13.75C13.3358 15.25 13 14.9142 13 14.5V8.5C13 8.08577 13.3358 7.75 13.75 7.75H16V9.25C16 9.66419 16.3358 10 16.75 10H18.25V14.5Z" fill="#2E5C9E"/>
</svg>
